<?xml version="1.0" encoding="UTF-8"?><svg xmlns="http://www.w3.org/2000/svg" xmlns:xlink="http://www.w3.org/1999/xlink" viewBox="0 0 800 1437.06"><defs><style>.ag{clip-path:url(#ac);}.ah{fill:#fff;}.ai{clip-path:url(#l);}.aj{clip-path:url(#h);}.ak{isolation:isolate;}.al{clip-path:url(#x);}.am{fill:#9650fa;}.an{clip-path:url(#aa);}.ao{clip-path:url(#n);}.ap{clip-path:url(#a`);}.aq{clip-path:url(#ab);}.ar{clip-path:url(#u);}.as{clip-path:url(#o);}.at{clip-path:url(#m);}.au{fill:#8f8f8f;}.av{clip-path:url(#ae);}.aw{clip-path:url(#c);}.ax{clip-path:url(#t);}.ay{clip-path:url(#e);}.b`{clip-path:url(#w);}.ba{clip-path:url(#af);}.bb{clip-path:url(#d);}.bc{clip-path:url(#v);}.bd{fill:#858585;}.be{fill:none;}.bf{clip-path:url(#p);}.bg{fill:#999;}.bh{clip-path:url(#f);}.bi{clip-path:url(#j);}.bj{clip-path:url(#q);}.bk{clip-path:url(#y);}.bl{fill:#949494;}.bm{fill:#8a8a8a;}.bn{clip-path:url(#s);}.bo{fill:#9e9e9e;}.bp{clip-path:url(#r);}.bq{clip-path:url(#i);}.br{clip-path:url(#k);}.bs{clip-path:url(#g);}.bt{clip-path:url(#ad);}</style><clipPath id="c"><path d="M636.15,914.34v22.92c0,3.35-1.56,6.7-4.68,9.26v-22.92c3.12-2.56,4.68-5.91,4.68-9.26Z"/></clipPath><clipPath id="d"><path d="M423.33,937.26v-22.92c0,3.35,1.56,6.7,4.68,9.26v22.92c-3.12-2.56-4.68-5.91-4.68-9.26Z"/></clipPath><clipPath id="e"><path class="be" d="M473.22,961.74c-6.82,0-13.64,2.13-18.84,6.39v-22.92c5.2-4.26,12.02-6.39,18.84-6.39v22.92Z"/></clipPath><clipPath id="f"><path class="be" d="M492.06,968.13c-5.2-4.26-12.02-6.39-18.84-6.39v-22.92c6.82,0,13.64,2.13,18.84,6.39,5.2,4.26,7.8,9.85,7.8,15.43v22.92c0-5.59-2.6-11.17-7.8-15.43Z"/></clipPath><clipPath id="g"><path class="be" d="M499.86,960.64v22.92c0,5.59-2.6,11.17-7.8,15.43v-22.92c5.2-4.26,7.8-9.85,7.8-15.43Z"/></clipPath><clipPath id="h"><path d="M446.58,983.56v-22.92c0,5.59,2.6,11.17,7.8,15.43,5.2,4.26,12.02,6.39,18.84,6.39s13.64-2.13,18.84-6.39v22.92c-5.2,4.26-12.02,6.39-18.84,6.39s-13.64-2.13-18.84-6.39c-5.2-4.26-7.8-9.85-7.8-15.43Z"/></clipPath><clipPath id="i"><path d="M541.04,997.67v22.92c-3.12,2.56-7.21,3.84-11.3,3.84s-8.18-1.28-11.3-3.84v-22.92c3.12,2.56,7.21,3.84,11.3,3.84s8.18-1.28,11.3-3.84Z"/></clipPath><clipPath id="j"><path d="M378.21,912.14v22.92c0,3.35-1.56,6.7-4.68,9.26v-22.92c3.12-2.56,4.68-5.91,4.68-9.26Z"/></clipPath><clipPath id="k"><path d="M165.39,935.06v-22.92c0,3.35,1.56,6.7,4.68,9.26v22.92c-3.12-2.56-4.68-5.91-4.68-9.26Z"/></clipPath><clipPath id="l"><path class="be" d="M301.67,981.36v-22.92c0-5.59,2.6-11.17,7.8-15.43s12.02-6.39,18.84-6.39,13.64,2.13,18.84,6.39v22.92c-5.2-4.26-12.02-6.39-18.84-6.39s-13.64,2.13-18.84,6.39-7.8,9.85-7.8,15.43Z"/></clipPath><clipPath id="m"><path class="be" d="M301.67,981.36v-22.92c0,5.59,2.6,11.17,7.8,15.43v22.92c-5.2-4.26-7.8-9.85-7.8-15.43Z"/></clipPath><clipPath id="n"><path d="M354.95,958.44v22.92c0,5.59-2.6,11.17-7.8,15.43-5.2,4.26-12.02,6.39-18.84,6.39s-13.64-2.13-18.84-6.39v-22.92c5.2,4.26,12.02,6.39,18.84,6.39s13.64-2.13,18.84-6.39c5.2-4.26,7.8-9.85,7.8-15.43Z"/></clipPath><clipPath id="o"><path d="M283.1,995.47v22.92c-3.12,2.56-7.21,3.84-11.3,3.84s-8.18-1.28-11.3-3.84v-22.92c3.12,2.56,7.21,3.84,11.3,3.84s8.18-1.28,11.3-3.84Z"/></clipPath><clipPath id="p"><path d="M430.69,1004.09v-22.92c0-5.59,2.6-11.17,7.8-15.43v22.92c-5.2,4.26-7.8,9.85-7.8,15.43Z"/></clipPath><clipPath id="q"><path d="M370.94,981.17v22.92c0-5.59-2.6-11.17-7.8-15.43v-22.92c5.2,4.26,7.8,9.85,7.8,15.43Z"/></clipPath><clipPath id="r"><path d="M507.22,1027.47v22.92c0,3.35-1.56,6.7-4.68,9.26v-22.92c3.12-2.56,4.68-5.91,4.68-9.26Z"/></clipPath><clipPath id="s"><path d="M294.4,1050.39v-22.92c0,3.35,1.56,6.7,4.68,9.26v22.92c-3.12-2.56-4.68-5.91-4.68-9.26Z"/></clipPath><clipPath id="t"><path d="M370.94,1073.76v22.92c0-5.58-2.6-11.17-7.8-15.43-5.2-4.26-12.02-6.39-18.84-6.39s-13.64,2.13-18.84,6.39v-22.92c5.2-4.26,12.02-6.39,18.84-6.39s13.64,2.13,18.84,6.39c5.2,4.26,7.8,9.85,7.8,15.43Z"/></clipPath><clipPath id="u"><path d="M430.69,1096.68v-22.92c0-5.58,2.6-11.17,7.8-15.43,5.2-4.26,12.02-6.39,18.84-6.39s13.64,2.13,18.84,6.39v22.92c-5.2-4.26-12.02-6.39-18.84-6.39s-13.64,2.13-18.84,6.39c-5.2,4.26-7.8,9.85-7.8,15.43Z"/></clipPath><clipPath id="v"><path d="M412.11,1110.8v22.92c-3.12,2.56-7.21,3.84-11.3,3.84s-8.18-1.28-11.3-3.84v-22.92c3.12,2.56,7.21,3.84,11.3,3.84s8.18-1.28,11.3-3.84Z"/></clipPath><clipPath id="w"><path class="be" d="M499.86,1116.14c0-5.58-2.6-11.17-7.8-15.43v-22.92c5.2,4.26,7.8,9.85,7.8,15.43v22.92Z"/></clipPath><clipPath id="x"><path d="M499.86,1093.22v22.92c0,5.58-2.6,11.17-7.8,15.43-5.2,4.26-12.02,6.39-18.84,6.39s-13.64-2.13-18.84-6.39c-5.2-4.26-7.8-9.85-7.8-15.43v-22.92c0,5.59,2.6,11.17,7.8,15.43,5.2,4.26,12.02,6.39,18.84,6.39s13.64-2.13,18.84-6.39c5.2-4.26,7.8-9.84,7.8-15.43Z"/></clipPath><clipPath id="y"><path d="M423.33,1162.43v-22.92c0,3.35,1.56,6.7,4.68,9.26v22.92c-3.12-2.56-4.68-5.91-4.68-9.26Z"/></clipPath><clipPath id="a`"><path d="M636.15,1139.51v22.92c0,3.35-1.56,6.7-4.68,9.26v-22.92c3.12-2.56,4.68-5.91,4.68-9.26Z"/></clipPath><clipPath id="aa"><path d="M541.04,1222.84v22.92c-3.12,2.56-7.21,3.84-11.3,3.84s-8.18-1.28-11.3-3.84v-22.92c3.12,2.56,7.21,3.84,11.3,3.84s8.18-1.28,11.3-3.84Z"/></clipPath><clipPath id="ab"><path class="be" d="M309.47,1101.69c-5.2,4.26-7.8,9.85-7.8,15.43v-22.92c0-5.58,2.6-11.17,7.8-15.43v22.92Z"/></clipPath><clipPath id="ac"><path d="M354.95,1094.2v22.92c0,5.58-2.6,11.17-7.8,15.43-5.21,4.26-12.02,6.39-18.84,6.39s-13.64-2.13-18.84-6.39c-5.2-4.26-7.8-9.85-7.8-15.43v-22.92c0,5.58,2.6,11.17,7.8,15.43,5.2,4.26,12.02,6.39,18.84,6.39s13.64-2.13,18.84-6.39c5.2-4.26,7.8-9.85,7.8-15.43Z"/></clipPath><clipPath id="ad"><path d="M165.39,1163.42v-22.92c0,3.35,1.56,6.7,4.68,9.26v22.92c-3.12-2.56-4.68-5.91-4.68-9.26Z"/></clipPath><clipPath id="ae"><path d="M378.21,1140.5v22.92c0,3.35-1.56,6.7-4.68,9.26v-22.92c3.12-2.56,4.68-5.91,4.68-9.26Z"/></clipPath><clipPath id="af"><path d="M283.1,1223.83v22.92c-3.12,2.56-7.21,3.84-11.3,3.84s-8.18-1.28-11.3-3.84v-22.92c3.12,2.56,7.21,3.84,11.3,3.84s8.18-1.28,11.3-3.84Z"/></clipPath></defs><g id="a"><rect class="am" y="637.06" width="800" height="800"/></g><g id="b"><g><g class="ak"><g class="ak"><path d="M636.15,914.34v22.92c0,3.35-1.56,6.7-4.68,9.26v-22.92c3.12-2.56,4.68-5.91,4.68-9.26Z"/><g class="aw"><g class="ak"><path d="M636.15,914.34v22.92c0,.14,0,.29,0,.43v-22.92c0-.14,0-.29,0-.43"/><path d="M636.14,914.77v22.92c-.06,1.58-.48,3.16-1.24,4.65v-22.92c.76-1.49,1.17-3.06,1.24-4.65"/><path d="M634.9,919.42v22.92c-.45,.88-1.03,1.74-1.73,2.54v-22.92c.7-.8,1.28-1.65,1.73-2.54"/><path d="M633.17,921.96v22.92c-.5,.58-1.07,1.13-1.71,1.65v-22.92c.63-.52,1.2-1.07,1.71-1.65"/></g></g></g><g class="ak"><path d="M423.33,937.26v-22.92c0,3.35,1.56,6.7,4.68,9.26v22.92c-3.12-2.56-4.68-5.91-4.68-9.26Z"/><g class="bb"><g class="ak"><path d="M428.01,923.6v22.92c-3.12-2.56-4.68-5.91-4.68-9.26v-22.92c0,3.35,1.56,6.7,4.68,9.26"/></g></g></g><polygon points="454.38 945.21 454.38 968.13 428.01 946.53 428.01 923.6 454.38 945.21"/><g class="ak"><g class="ay"><g class="ak"><path class="bm" d="M474.51,938.84v22.92c-.43-.02-.86-.03-1.29-.03-1.53,0-3.05,.11-4.56,.32v-22.92c1.51-.21,3.03-.32,4.56-.32,.43,0,.86,0,1.29,.03"/><path class="au" d="M468.66,939.14v22.92c-1.73,.24-3.44,.63-5.09,1.16v-22.92c1.65-.53,3.36-.91,5.09-1.16"/><path class="bl" d="M463.57,940.29v22.92c-1.76,.56-3.46,1.28-5.07,2.15v-22.92c1.61-.88,3.31-1.59,5.07-2.15"/><path class="bg" d="M458.5,942.44v22.92c-1.45,.79-2.84,1.71-4.12,2.76v-22.92c1.28-1.05,2.66-1.97,4.12-2.76"/></g></g></g><g class="ak"><g class="bh"><g class="ak"><path class="bd" d="M499.86,960.64v22.92c0-5.59-2.6-11.17-7.8-15.43-4.88-3.99-11.17-6.11-17.55-6.36v-22.92c6.38,.25,12.68,2.37,17.55,6.36,5.2,4.26,7.8,9.85,7.8,15.43"/><path class="bm" d="M474.51,938.84v22.92c-.43-.02-.86-.03-1.29-.03-1.53,0-3.05,.11-4.56,.32v-22.92c1.51-.21,3.03-.32,4.56-.32,.43,0,.86,0,1.29,.03"/></g></g></g><g class="ak"><g class="bs"><g class="ak"><path class="bl" d="M499.86,960.64v22.92c0,.24,0,.48-.01,.72v-22.92c0-.24,.01-.48,.01-.72"/><path class="bg" d="M499.85,961.36v22.92c-.11,2.64-.79,5.27-2.06,7.74v-22.92c1.27-2.48,1.96-5.1,2.06-7.74"/><path class="bo" d="M497.79,969.1v22.92c-.76,1.47-1.72,2.89-2.88,4.23v-22.92c1.17-1.34,2.13-2.75,2.88-4.23"/><path class="bg" d="M494.9,973.33v22.92c-.84,.96-1.79,1.88-2.84,2.74v-22.92c1.05-.86,2-1.78,2.84-2.74"/></g></g></g><g class="ak"><path d="M446.58,983.56v-22.92c0,5.59,2.6,11.17,7.8,15.43,5.2,4.26,12.02,6.39,18.84,6.39s13.64-2.13,18.84-6.39v22.92c-5.2,4.26-12.02,6.39-18.84,6.39s-13.64-2.13-18.84-6.39c-5.2-4.26-7.8-9.85-7.8-15.43Z"/><g class="aj"><g class="ak"><path d="M492.06,976.07v22.92c-1.28,1.05-2.67,1.97-4.12,2.77v-22.92c1.46-.79,2.84-1.71,4.12-2.77"/><path d="M487.94,978.84v22.92c-1.61,.88-3.31,1.59-5.07,2.15v-22.92c1.76-.56,3.46-1.28,5.07-2.15"/><path d="M482.87,980.99v22.92c-1.65,.53-3.36,.91-5.09,1.16v-22.92c1.73-.24,3.43-.63,5.09-1.16"/><path d="M477.78,982.14v22.92c-1.51,.21-3.03,.32-4.56,.32-.43,0-.86,0-1.29-.03v-22.92c.43,.02,.86,.03,1.29,.03,1.53,0,3.05-.11,4.56-.32"/><path d="M471.94,982.44v22.92c-6.38-.25-12.68-2.37-17.55-6.37-5.2-4.26-7.8-9.85-7.8-15.43v-22.92c0,5.59,2.6,11.17,7.8,15.43,4.88,3.99,11.17,6.12,17.55,6.37"/></g></g></g><path class="ah" d="M529.74,827.18c4.09,0,8.18,1.28,11.3,3.84l90.42,74.07c6.24,5.11,6.24,13.4,0,18.52l-90.42,74.07c-3.12,2.56-7.21,3.84-11.3,3.84s-8.18-1.28-11.3-3.84l-26.38-21.61c10.4-8.52,10.4-22.34,0-30.86-5.2-4.26-12.02-6.39-18.84-6.39s-13.64,2.13-18.84,6.39l-26.38-21.6c-6.24-5.11-6.24-13.41,0-18.52l90.43-74.07c3.12-2.56,7.21-3.84,11.3-3.84Z"/><path class="ah" d="M473.22,938.81c6.82,0,13.64,2.13,18.84,6.39,10.4,8.52,10.4,22.34,0,30.86-5.2,4.26-12.02,6.39-18.84,6.39s-13.64-2.13-18.84-6.39c-10.4-8.52-10.4-22.34,0-30.86,5.2-4.26,12.02-6.39,18.84-6.39Z"/><polygon points="631.47 923.6 631.47 946.53 541.04 1020.6 541.04 997.67 631.47 923.6"/><polygon points="518.44 997.67 518.44 1020.6 492.06 998.99 492.06 976.07 518.44 997.67"/><g class="ak"><path d="M541.04,997.67v22.92c-3.12,2.56-7.21,3.84-11.3,3.84s-8.18-1.28-11.3-3.84v-22.92c3.12,2.56,7.21,3.84,11.3,3.84s8.18-1.28,11.3-3.84Z"/><g class="bq"><g class="ak"><path d="M541.04,997.67v22.92c-.77,.63-1.6,1.18-2.47,1.66v-22.92c.87-.48,1.7-1.03,2.47-1.66"/><path d="M538.57,999.33v22.92c-.97,.53-1.99,.96-3.04,1.29v-22.92c1.05-.34,2.08-.77,3.04-1.29"/><path d="M535.53,1000.62v22.92c-.99,.32-2.02,.55-3.05,.69v-22.92c1.04-.15,2.06-.38,3.05-.69"/><path d="M532.47,1001.32v22.92c-.9,.13-1.82,.19-2.74,.19-.26,0-.51,0-.77-.02v-22.92c.26,.01,.51,.02,.77,.02,.92,0,1.83-.06,2.74-.19"/><path d="M528.97,1001.5v22.92c-3.83-.15-7.61-1.42-10.53-3.82v-22.92c2.92,2.4,6.7,3.67,10.53,3.82"/></g></g></g></g><g class="ak"><g class="ak"><path d="M378.21,912.14v22.92c0,3.35-1.56,6.7-4.68,9.26v-22.92c3.12-2.56,4.68-5.91,4.68-9.26Z"/><g class="bi"><g class="ak"><path d="M378.21,912.14v22.92c0,.14,0,.29,0,.43v-22.92c0-.14,0-.29,0-.43"/><path d="M378.2,912.57v22.92c-.06,1.58-.48,3.16-1.24,4.65v-22.92c.76-1.49,1.17-3.06,1.24-4.65"/><path d="M376.96,917.22v22.92c-.45,.88-1.03,1.74-1.73,2.54v-22.92c.7-.8,1.28-1.65,1.73-2.54"/><path d="M375.23,919.76v22.92c-.5,.58-1.07,1.13-1.71,1.65v-22.92c.63-.52,1.2-1.07,1.71-1.65"/></g></g></g><g class="ak"><path d="M165.39,935.06v-22.92c0,3.35,1.56,6.7,4.68,9.26v22.92c-3.12-2.56-4.68-5.91-4.68-9.26Z"/><g class="br"><g class="ak"><path d="M170.07,921.4v22.92c-3.12-2.56-4.68-5.91-4.68-9.26v-22.92c0,3.35,1.56,6.7,4.68,9.26"/></g></g></g><polygon points="373.52 921.4 373.52 944.32 347.15 965.93 347.15 943 373.52 921.4"/><g class="ak"><g class="ai"><g class="ak"><path class="bd" d="M347.15,943v22.92c-4.88-3.99-11.17-6.11-17.55-6.36v-22.92c6.38,.25,12.68,2.37,17.55,6.36"/><path class="bm" d="M329.6,936.64v22.92c-.43-.02-.86-.03-1.29-.03-1.53,0-3.05,.11-4.56,.32v-22.92c1.51-.21,3.04-.32,4.56-.32,.43,0,.86,0,1.29,.03"/><path class="au" d="M323.75,936.93v22.92c-1.73,.24-3.44,.63-5.09,1.16v-22.92c1.65-.53,3.36-.91,5.09-1.16"/><path class="bl" d="M318.66,938.09v22.92c-1.76,.56-3.46,1.28-5.07,2.15v-22.92c1.61-.88,3.31-1.59,5.07-2.15"/><path class="bg" d="M313.59,940.24v22.92c-1.46,.79-2.84,1.71-4.12,2.76-1.05,.86-2,1.78-2.84,2.74v-22.92c.84-.96,1.79-1.88,2.84-2.74,1.28-1.05,2.66-1.97,4.12-2.76"/><path class="bo" d="M306.63,945.75v22.92c-1.17,1.34-2.13,2.76-2.89,4.23v-22.92c.76-1.47,1.72-2.89,2.89-4.23"/><path class="bg" d="M303.75,949.98v22.92c-1.27,2.48-1.96,5.1-2.06,7.74v-22.92c.11-2.64,.79-5.27,2.06-7.74"/><path class="bl" d="M301.68,957.72v22.92c0,.24-.01,.48-.01,.72v-22.92c0-.24,0-.48,.01-.72"/></g></g></g><g class="ak"><g class="at"><g class="ak"><path class="bd" d="M309.47,973.87v22.92c-5.2-4.26-7.8-9.85-7.8-15.43v-22.92c0,5.59,2.6,11.17,7.8,15.43"/></g></g></g><g class="ak"><path d="M354.95,958.44v22.92c0,5.59-2.6,11.17-7.8,15.43-5.2,4.26-12.02,6.39-18.84,6.39s-13.64-2.13-18.84-6.39v-22.92c5.2,4.26,12.02,6.39,18.84,6.39s13.64-2.13,18.84-6.39c5.2-4.26,7.8-9.85,7.8-15.43Z"/><g class="ao"><g class="ak"><path d="M354.95,958.44v22.92c0,.24,0,.48-.01,.72v-22.92c0-.24,.01-.48,.01-.72"/><path d="M354.94,959.16v22.92c-.11,2.64-.79,5.27-2.06,7.74v-22.92c1.27-2.48,1.96-5.1,2.06-7.74"/><path d="M352.88,966.9v22.92c-.76,1.47-1.72,2.89-2.88,4.23v-22.92c1.17-1.34,2.13-2.75,2.88-4.23"/><path d="M349.99,971.13v22.92c-.84,.96-1.79,1.88-2.84,2.74-1.28,1.05-2.67,1.97-4.12,2.77v-22.92c1.46-.79,2.84-1.71,4.12-2.77,1.05-.86,2-1.78,2.84-2.74"/><path d="M343.03,976.63v22.92c-1.61,.88-3.31,1.59-5.07,2.15v-22.92c1.76-.56,3.46-1.28,5.07-2.15"/><path d="M337.96,978.78v22.92c-1.65,.53-3.36,.91-5.09,1.16v-22.92c1.73-.24,3.44-.63,5.09-1.16"/><path d="M332.87,979.94v22.92c-1.51,.21-3.03,.32-4.56,.32-.43,0-.86,0-1.29-.03v-22.92c.43,.02,.86,.03,1.29,.03,1.53,0,3.05-.11,4.56-.32"/><path d="M327.03,980.24v22.92c-6.38-.25-12.68-2.37-17.55-6.37v-22.92c4.87,3.99,11.17,6.12,17.55,6.37"/></g></g></g><path class="ah" d="M328.31,936.61c6.82,0,13.64,2.13,18.84,6.39,10.4,8.52,10.4,22.34,0,30.86-5.2,4.26-12.02,6.39-18.84,6.39s-13.64-2.13-18.84-6.39c-10.41-8.52-10.41-22.34,0-30.86,5.2-4.26,12.02-6.39,18.84-6.39Z"/><polygon points="309.47 973.87 309.47 996.79 283.1 1018.39 283.1 995.47 309.47 973.87"/><polygon points="260.49 995.47 260.49 1018.39 170.07 944.32 170.07 921.4 260.49 995.47"/><g class="ak"><path d="M283.1,995.47v22.92c-3.12,2.56-7.21,3.84-11.3,3.84s-8.18-1.28-11.3-3.84v-22.92c3.12,2.56,7.21,3.84,11.3,3.84s8.18-1.28,11.3-3.84Z"/><g class="as"><g class="ak"><path d="M283.1,995.47v22.92c-.77,.63-1.6,1.18-2.47,1.66v-22.92c.87-.48,1.7-1.03,2.47-1.66"/><path d="M280.63,997.13v22.92c-.97,.53-1.99,.96-3.04,1.29v-22.92c1.05-.34,2.07-.77,3.04-1.29"/><path d="M277.58,998.42v22.92c-.99,.32-2.02,.55-3.05,.69v-22.92c1.04-.15,2.06-.38,3.05-.69"/><path d="M274.53,999.12v22.92c-.9,.13-1.82,.19-2.74,.19-.26,0-.51,0-.77-.02v-22.92c.26,.01,.51,.02,.77,.02,.92,0,1.83-.06,2.74-.19"/><path d="M271.02,999.29v22.92c-3.83-.15-7.61-1.42-10.53-3.82v-22.92c2.93,2.4,6.7,3.67,10.53,3.82"/></g></g></g><path class="ah" d="M271.8,824.98c4.09,0,8.18,1.28,11.3,3.83l90.42,74.07c6.24,5.11,6.24,13.4,0,18.52l-26.37,21.6c-5.2-4.26-12.02-6.39-18.84-6.39s-13.64,2.13-18.84,6.39c-10.41,8.52-10.41,22.34,0,30.86l-26.38,21.61c-3.12,2.56-7.21,3.84-11.3,3.84s-8.18-1.28-11.3-3.84l-90.42-74.07c-6.24-5.11-6.24-13.41,0-18.52l90.42-74.07c3.12-2.56,7.21-3.83,11.3-3.83Z"/></g><g class="ak"><g class="ak"><path d="M430.69,1004.09v-22.92c0-5.59,2.6-11.17,7.8-15.43v22.92c-5.2,4.26-7.8,9.85-7.8,15.43Z"/><g class="bf"><g class="ak"><path d="M438.49,965.74v22.92c-1.05,.86-2,1.78-2.84,2.74v-22.92c.84-.96,1.79-1.88,2.84-2.74"/><path d="M435.65,968.48v22.92c-1.17,1.34-2.13,2.76-2.89,4.23v-22.92c.76-1.47,1.72-2.89,2.89-4.23"/><path d="M432.76,972.71v22.92c-1.27,2.48-1.96,5.1-2.06,7.74v-22.92c.11-2.64,.79-5.27,2.06-7.74"/><path d="M430.7,980.45v22.92c0,.24-.01,.48-.01,.72v-22.92c0-.24,0-.48,.01-.72"/></g></g></g><g class="ak"><path d="M370.94,981.17v22.92c0-5.59-2.6-11.17-7.8-15.43v-22.92c5.2,4.26,7.8,9.85,7.8,15.43Z"/><g class="bj"><g class="ak"><path d="M370.94,981.17v22.92c0-5.59-2.6-11.17-7.8-15.43v-22.92c5.2,4.26,7.8,9.85,7.8,15.43"/></g></g></g><g class="ak"><path d="M507.22,1027.47v22.92c0,3.35-1.56,6.7-4.68,9.26v-22.92c3.12-2.56,4.68-5.91,4.68-9.26Z"/><g class="bp"><g class="ak"><path d="M507.22,1027.47v22.92c0,.14,0,.29,0,.43v-22.92c0-.14,0-.29,0-.43"/><path d="M507.21,1027.9v22.92c-.06,1.59-.48,3.16-1.24,4.65v-22.92c.76-1.49,1.17-3.06,1.24-4.65"/><path d="M505.98,1032.55v22.92c-.45,.88-1.03,1.74-1.73,2.54v-22.92c.7-.8,1.28-1.65,1.73-2.54"/><path d="M504.24,1035.08v22.92c-.5,.58-1.07,1.12-1.7,1.64v-22.92c.63-.52,1.2-1.07,1.7-1.64"/></g></g></g><g class="ak"><path d="M294.4,1050.39v-22.92c0,3.35,1.56,6.7,4.68,9.26v22.92c-3.12-2.56-4.68-5.91-4.68-9.26Z"/><g class="bn"><g class="ak"><path d="M299.08,1036.72v22.92c-3.12-2.56-4.68-5.91-4.68-9.26v-22.92c0,3.35,1.56,6.7,4.68,9.26"/></g></g></g><polygon points="502.54 1036.72 502.54 1059.65 476.17 1081.25 476.17 1058.33 502.54 1036.72"/><polygon points="325.46 1058.33 325.46 1081.25 299.08 1059.65 299.08 1036.72 325.46 1058.33"/><g class="ak"><path d="M370.94,1073.76v22.92c0-5.58-2.6-11.17-7.8-15.43-5.2-4.26-12.02-6.39-18.84-6.39s-13.64,2.13-18.84,6.39v-22.92c5.2-4.26,12.02-6.39,18.84-6.39s13.64,2.13,18.84,6.39c5.2,4.26,7.8,9.85,7.8,15.43Z"/><g class="ax"><g class="ak"><path d="M370.94,1073.76v22.92c0-5.58-2.6-11.17-7.8-15.43-4.88-3.99-11.17-6.12-17.55-6.37v-22.92c6.38,.25,12.68,2.37,17.55,6.37,5.2,4.26,7.8,9.85,7.8,15.43"/><path d="M345.58,1051.96v22.92c-.43-.02-.86-.03-1.29-.03-1.53,0-3.05,.11-4.56,.32v-22.92c1.51-.21,3.03-.32,4.56-.32,.43,0,.86,0,1.29,.03"/><path d="M339.74,1052.26v22.92c-1.73,.24-3.43,.63-5.09,1.16v-22.92c1.65-.53,3.36-.91,5.09-1.16"/><path d="M334.65,1053.41v22.92c-1.76,.56-3.46,1.28-5.07,2.15v-22.92c1.61-.88,3.31-1.59,5.07-2.15"/><path d="M329.58,1055.56v22.92c-1.46,.79-2.84,1.71-4.12,2.77v-22.92c1.28-1.05,2.67-1.97,4.12-2.77"/></g></g></g><g class="ak"><path d="M430.69,1096.68v-22.92c0-5.58,2.6-11.17,7.8-15.43,5.2-4.26,12.02-6.39,18.84-6.39s13.64,2.13,18.84,6.39v22.92c-5.2-4.26-12.02-6.39-18.84-6.39s-13.64,2.13-18.84,6.39c-5.2,4.26-7.8,9.85-7.8,15.43Z"/><g class="ar"><g class="ak"><path d="M476.17,1058.33v22.92c-4.88-3.99-11.17-6.12-17.55-6.37v-22.92c6.38,.25,12.68,2.37,17.55,6.37"/><path d="M458.61,1051.96v22.92c-.43-.02-.86-.03-1.29-.03-1.53,0-3.05,.11-4.56,.32v-22.92c1.51-.21,3.03-.32,4.56-.32,.43,0,.86,0,1.29,.03"/><path d="M452.77,1052.26v22.92c-1.73,.24-3.43,.63-5.09,1.16v-22.92c1.65-.53,3.36-.91,5.09-1.16"/><path d="M447.68,1053.41v22.92c-1.76,.56-3.46,1.28-5.07,2.15v-22.92c1.61-.88,3.31-1.59,5.07-2.15"/><path d="M442.61,1055.56v22.92c-1.46,.79-2.84,1.71-4.12,2.77-1.06,.86-2.01,1.78-2.85,2.75v-22.92c.84-.96,1.79-1.88,2.85-2.75,1.28-1.05,2.67-1.97,4.12-2.77"/><path d="M435.64,1061.08v22.92c-1.17,1.33-2.13,2.75-2.88,4.23v-22.92c.75-1.47,1.72-2.89,2.88-4.23"/><path d="M432.76,1065.3v22.92c-1.27,2.47-1.96,5.1-2.06,7.74v-22.92c.11-2.64,.79-5.27,2.06-7.74"/><path d="M430.7,1073.04v22.92c0,.24-.01,.48-.01,.72v-22.92c0-.24,0-.48,.01-.72"/></g></g></g><polygon points="389.51 1110.8 389.51 1133.72 363.14 1112.11 363.14 1089.19 389.51 1110.8"/><polygon points="438.49 1089.19 438.49 1112.11 412.11 1133.72 412.11 1110.8 438.49 1089.19"/><g class="ak"><path d="M412.11,1110.8v22.92c-3.12,2.56-7.21,3.84-11.3,3.84s-8.18-1.28-11.3-3.84v-22.92c3.12,2.56,7.21,3.84,11.3,3.84s8.18-1.28,11.3-3.84Z"/><g class="bc"><g class="ak"><path d="M412.11,1110.8v22.92c-.77,.63-1.6,1.19-2.47,1.66v-22.92c.87-.48,1.7-1.03,2.47-1.66"/><path d="M409.64,1112.46v22.92c-.96,.52-1.98,.95-3.04,1.29v-22.92c1.05-.33,2.07-.76,3.04-1.29"/><path d="M406.6,1113.75v22.92c-.99,.32-2.02,.55-3.05,.69v-22.92c1.04-.15,2.06-.38,3.05-.69"/><path d="M403.55,1114.44v22.92c-.9,.13-1.82,.19-2.74,.19-.26,0-.51,0-.77-.02v-22.92c.26,.01,.51,.02,.77,.02,.92,0,1.83-.06,2.74-.19"/><path d="M400.04,1114.62v22.92c-3.83-.15-7.61-1.42-10.53-3.82v-22.92c2.93,2.4,6.7,3.67,10.53,3.82"/></g></g></g><path class="ah" d="M400.81,940.3c4.09,0,8.18,1.28,11.3,3.84l26.38,21.6c-10.41,8.52-10.41,22.34,0,30.86,5.2,4.26,12.02,6.39,18.84,6.39s13.64-2.13,18.84-6.39l26.38,21.61c6.24,5.11,6.24,13.4,0,18.52l-26.38,21.61c-5.2-4.26-12.02-6.39-18.84-6.39s-13.64,2.13-18.84,6.39c-10.41,8.52-10.41,22.34,0,30.86l-26.38,21.61c-3.12,2.56-7.21,3.84-11.3,3.84s-8.18-1.28-11.3-3.84l-26.37-21.61c10.4-8.52,10.4-22.34,0-30.86-5.2-4.26-12.02-6.39-18.84-6.39s-13.64,2.13-18.84,6.39l-26.38-21.61c-6.24-5.11-6.24-13.4,0-18.52l26.38-21.61c5.2,4.26,12.02,6.39,18.84,6.39s13.64-2.13,18.84-6.39c10.4-8.52,10.4-22.34,0-30.86l26.37-21.6c3.12-2.56,7.21-3.84,11.3-3.84Z"/></g><g class="ak"><g class="ak"><g class="b`"><g class="ak"><path class="bd" d="M499.86,1093.22v22.92c0-5.58-2.6-11.17-7.8-15.43v-22.92c5.2,4.26,7.8,9.85,7.8,15.43"/></g></g></g><g class="ak"><path d="M499.86,1093.22v22.92c0,5.58-2.6,11.17-7.8,15.43-5.2,4.26-12.02,6.39-18.84,6.39s-13.64-2.13-18.84-6.39c-5.2-4.26-7.8-9.85-7.8-15.43v-22.92c0,5.59,2.6,11.17,7.8,15.43,5.2,4.26,12.02,6.39,18.84,6.39s13.64-2.13,18.84-6.39c5.2-4.26,7.8-9.84,7.8-15.43Z"/><g class="al"><g class="ak"><path d="M499.86,1093.22v22.92c0,.24,0,.48-.01,.72v-22.92c0-.24,.01-.48,.01-.72"/><path d="M499.85,1093.94v22.92c-.11,2.64-.79,5.27-2.06,7.74v-22.92c1.27-2.48,1.96-5.1,2.06-7.74"/><path d="M497.79,1101.68v22.92c-.76,1.47-1.72,2.89-2.88,4.23v-22.92c1.17-1.34,2.13-2.75,2.88-4.23"/><path d="M494.9,1105.91v22.92c-.84,.96-1.79,1.88-2.84,2.74-1.28,1.05-2.67,1.97-4.12,2.77v-22.92c1.46-.79,2.84-1.71,4.12-2.77,1.05-.86,2-1.78,2.84-2.74"/><path d="M487.94,1111.41v22.92c-1.61,.88-3.31,1.59-5.07,2.15v-22.92c1.76-.56,3.46-1.28,5.07-2.15"/><path d="M482.87,1113.56v22.92c-1.65,.53-3.36,.91-5.09,1.16v-22.92c1.73-.24,3.43-.63,5.09-1.16"/><path d="M477.78,1114.72v22.92c-1.51,.21-3.03,.32-4.56,.32-.43,0-.86,0-1.29-.03v-22.92c.43,.02,.86,.03,1.29,.03,1.53,0,3.05-.11,4.56-.32"/><path d="M471.94,1115.01v22.92c-6.38-.25-12.68-2.37-17.55-6.37-5.2-4.26-7.8-9.85-7.8-15.43v-22.92c0,5.59,2.6,11.17,7.8,15.43,4.88,3.99,11.17,6.12,17.55,6.37"/></g></g></g><path class="ah" d="M473.22,1071.39c6.82,0,13.64,2.13,18.84,6.39,10.4,8.52,10.4,22.34,0,30.86-5.2,4.26-12.02,6.39-18.84,6.39s-13.64-2.13-18.84-6.39c-10.4-8.52-10.4-22.34,0-30.86,5.2-4.26,12.02-6.39,18.84-6.39Z"/><g class="ak"><path d="M423.33,1162.43v-22.92c0,3.35,1.56,6.7,4.68,9.26v22.92c-3.12-2.56-4.68-5.91-4.68-9.26Z"/><g class="bk"><g class="ak"><path d="M428.01,1148.77v22.92c-3.12-2.56-4.68-5.91-4.68-9.26v-22.92c0,3.35,1.56,6.7,4.68,9.26"/></g></g></g><g class="ak"><path d="M636.15,1139.51v22.92c0,3.35-1.56,6.7-4.68,9.26v-22.92c3.12-2.56,4.68-5.91,4.68-9.26Z"/><g class="ap"><g class="ak"><path d="M636.15,1139.51v22.92c0,.14,0,.29,0,.43v-22.92c0-.14,0-.29,0-.43"/><path d="M636.14,1139.94v22.92c-.06,1.58-.48,3.16-1.24,4.64v-22.92c.76-1.48,1.17-3.06,1.24-4.64"/><path d="M634.91,1144.59v22.92c-.45,.88-1.03,1.73-1.73,2.53v-22.92c.7-.8,1.28-1.65,1.73-2.53"/><path d="M633.18,1147.12v22.92c-.51,.58-1.08,1.13-1.71,1.65v-22.92c.63-.52,1.2-1.07,1.71-1.65"/></g></g></g><polygon points="518.44 1222.84 518.44 1245.76 428.01 1171.69 428.01 1148.77 518.44 1222.84"/><polygon points="631.47 1148.77 631.47 1171.69 541.04 1245.76 541.04 1222.84 631.47 1148.77"/><path class="ah" d="M529.74,1052.35c4.09,0,8.18,1.28,11.3,3.84l90.42,74.07c6.24,5.11,6.24,13.41,0,18.52l-90.42,74.07c-3.12,2.56-7.21,3.84-11.3,3.84s-8.18-1.28-11.3-3.84l-90.43-74.07c-6.24-5.11-6.24-13.4,0-18.52l26.38-21.6c5.2,4.26,12.02,6.39,18.84,6.39s13.64-2.13,18.84-6.39c10.4-8.52,10.4-22.34,0-30.86l26.38-21.61c3.12-2.56,7.21-3.84,11.3-3.84Z"/><g class="ak"><path d="M541.04,1222.84v22.92c-3.12,2.56-7.21,3.84-11.3,3.84s-8.18-1.28-11.3-3.84v-22.92c3.12,2.56,7.21,3.84,11.3,3.84s8.18-1.28,11.3-3.84Z"/><g class="an"><g class="ak"><path d="M541.04,1222.84v22.92c-.77,.63-1.6,1.18-2.47,1.66v-22.92c.87-.48,1.7-1.03,2.47-1.66"/><path d="M538.57,1224.5v22.92c-.97,.53-1.99,.96-3.04,1.29v-22.92c1.05-.34,2.08-.77,3.04-1.29"/><path d="M535.53,1225.79v22.92c-.99,.32-2.02,.55-3.05,.69v-22.92c1.04-.15,2.06-.38,3.05-.69"/><path d="M532.48,1226.48v22.92c-.9,.13-1.82,.19-2.74,.19-.26,0-.51,0-.77-.02v-22.92c.26,.01,.51,.02,.77,.02,.92,0,1.83-.06,2.74-.19"/><path d="M528.97,1226.66v22.92c-3.83-.15-7.61-1.42-10.53-3.82v-22.92c2.92,2.4,6.7,3.67,10.53,3.82"/></g></g></g></g><g class="ak"><g class="ak"><g class="aq"><g class="ak"><path class="bg" d="M309.47,1078.77v22.92c-1.06,.86-2.01,1.78-2.85,2.75v-22.92c.84-.96,1.79-1.88,2.85-2.75"/><path class="bo" d="M306.63,1081.52v22.92c-1.17,1.33-2.13,2.75-2.88,4.23v-22.92c.75-1.47,1.72-2.89,2.88-4.23"/><path class="bg" d="M303.74,1085.74v22.92c-1.27,2.47-1.96,5.1-2.06,7.74v-22.92c.11-2.64,.79-5.27,2.06-7.74"/><path class="bl" d="M301.68,1093.48v22.92c0,.24-.01,.48-.01,.72v-22.92c0-.24,0-.48,.01-.72"/></g></g></g><path class="ah" d="M328.31,1072.38c6.82,0,13.64,2.13,18.84,6.39,10.4,8.52,10.4,22.34,0,30.86-5.21,4.26-12.02,6.39-18.84,6.39s-13.64-2.13-18.84-6.39c-10.41-8.52-10.41-22.34,0-30.86,5.2-4.26,12.02-6.39,18.84-6.39Z"/><g class="ak"><path d="M354.95,1094.2v22.92c0,5.58-2.6,11.17-7.8,15.43-5.21,4.26-12.02,6.39-18.84,6.39s-13.64-2.13-18.84-6.39c-5.2-4.26-7.8-9.85-7.8-15.43v-22.92c0,5.58,2.6,11.17,7.8,15.43,5.2,4.26,12.02,6.39,18.84,6.39s13.64-2.13,18.84-6.39c5.2-4.26,7.8-9.85,7.8-15.43Z"/><g class="ag"><g class="ak"><path d="M354.95,1094.2v22.92c0,.24,0,.48-.01,.72v-22.92c0-.24,.01-.48,.01-.72"/><path d="M354.94,1094.92v22.92c-.11,2.64-.79,5.27-2.06,7.74v-22.92c1.27-2.48,1.96-5.1,2.06-7.74"/><path d="M352.88,1102.66v22.92c-.76,1.47-1.72,2.89-2.88,4.23v-22.92c1.17-1.34,2.13-2.75,2.88-4.23"/><path d="M349.99,1106.89v22.92c-.84,.96-1.79,1.88-2.84,2.74-1.28,1.05-2.67,1.97-4.12,2.77v-22.92c1.46-.79,2.84-1.71,4.12-2.77,1.05-.86,2-1.78,2.84-2.74"/><path d="M343.03,1112.4v22.92c-1.61,.88-3.31,1.59-5.07,2.15v-22.92c1.76-.56,3.46-1.28,5.07-2.15"/><path d="M337.96,1114.55v22.92c-1.65,.53-3.36,.91-5.09,1.16v-22.92c1.73-.24,3.43-.63,5.09-1.16"/><path d="M332.87,1115.7v22.92c-1.51,.21-3.03,.32-4.56,.32-.43,0-.86,0-1.29-.03v-22.92c.43,.02,.86,.03,1.29,.03,1.53,0,3.05-.11,4.56-.32"/><path d="M327.03,1116v22.92c-6.38-.25-12.68-2.37-17.55-6.37-5.2-4.26-7.8-9.85-7.8-15.43v-22.92c0,5.58,2.6,11.17,7.8,15.43,4.87,3.99,11.17,6.12,17.55,6.37"/></g></g></g><g class="ak"><path d="M165.39,1163.42v-22.92c0,3.35,1.56,6.7,4.68,9.26v22.92c-3.12-2.56-4.68-5.91-4.68-9.26Z"/><g class="bt"><g class="ak"><path d="M170.07,1149.75v22.92c-3.12-2.56-4.68-5.91-4.68-9.26v-22.92c0,3.35,1.56,6.7,4.68,9.26"/></g></g></g><g class="ak"><path d="M378.21,1140.5v22.92c0,3.35-1.56,6.7-4.68,9.26v-22.92c3.12-2.56,4.68-5.91,4.68-9.26Z"/><g class="av"><g class="ak"><path d="M378.21,1140.5v22.92c0,.14,0,.29,0,.43v-22.92c0-.14,0-.29,0-.43"/><path d="M378.2,1140.93v22.92c-.06,1.58-.48,3.16-1.24,4.64v-22.92c.76-1.48,1.17-3.06,1.24-4.64"/><path d="M376.96,1145.57v22.92c-.45,.88-1.03,1.74-1.73,2.54v-22.92c.7-.8,1.28-1.65,1.73-2.54"/><path d="M375.23,1148.11v22.92c-.5,.58-1.07,1.13-1.71,1.65v-22.92c.63-.52,1.2-1.07,1.71-1.65"/></g></g></g><polygon points="260.49 1223.83 260.49 1246.75 170.07 1172.68 170.07 1149.75 260.49 1223.83"/><polygon points="373.52 1149.75 373.52 1172.68 283.1 1246.75 283.1 1223.83 373.52 1149.75"/><g class="ak"><path d="M283.1,1223.83v22.92c-3.12,2.56-7.21,3.84-11.3,3.84s-8.18-1.28-11.3-3.84v-22.92c3.12,2.56,7.21,3.84,11.3,3.84s8.18-1.28,11.3-3.84Z"/><g class="ba"><g class="ak"><path d="M283.1,1223.83v22.92c-.77,.63-1.6,1.18-2.47,1.66v-22.92c.87-.48,1.7-1.03,2.47-1.66"/><path d="M280.63,1225.49v22.92c-.97,.53-1.99,.96-3.04,1.29v-22.92c1.05-.34,2.07-.77,3.04-1.29"/><path d="M277.58,1226.78v22.92c-.99,.32-2.02,.55-3.05,.69v-22.92c1.04-.15,2.06-.38,3.05-.69"/><path d="M274.53,1227.47v22.92c-.9,.13-1.82,.19-2.74,.19-.26,0-.51,0-.77-.02v-22.92c.26,.01,.51,.02,.77,.02,.92,0,1.83-.06,2.74-.19"/><path d="M271.02,1227.65v22.92c-3.83-.15-7.61-1.42-10.53-3.82v-22.92c2.93,2.4,6.7,3.67,10.53,3.82"/></g></g></g><path class="ah" d="M271.8,1053.33c4.09,0,8.18,1.28,11.3,3.84l26.38,21.61c-10.41,8.52-10.41,22.34,0,30.86,5.2,4.26,12.02,6.39,18.84,6.39s13.64-2.13,18.84-6.39l26.37,21.6c6.24,5.11,6.24,13.4,0,18.52l-90.42,74.07c-3.12,2.56-7.21,3.84-11.3,3.84s-8.18-1.28-11.3-3.84l-90.42-74.07c-6.24-5.11-6.24-13.4,0-18.52l90.42-74.07c3.12-2.56,7.21-3.84,11.3-3.84Z"/></g><path class="ah" d="M303.53,1088.99l.51,1.79c.08,.33,.23,.61,.45,.85,.18,.27,.41,.49,.7,.64,.29,.18,.6,.28,.93,.3,.33,.07,.66,.06,1-.04l.6-.25c.38-.22,.67-.52,.9-.9l.25-.6c.12-.44,.12-.89,0-1.33l-.51-1.79c-.08-.33-.23-.61-.45-.85-.18-.27-.41-.49-.7-.64-.29-.18-.6-.28-.93-.3-.33-.07-.66-.06-1,.04l-.6,.25c-.38,.22-.67,.52-.9,.9l-.25,.6c-.12,.44-.12,.89,0,1.33h0Z"/><path class="ah" d="M301.88,1088.02c-2.42,4.82-2.61,10.17-2.31,15.45,.15,2.64,.17,5.56,2.95,6.83,1.25,.57,2.63,.74,3.97,1l4.41,.85c1.32,.25,2.7-.37,3.08-1.75,.34-1.22-.41-2.82-1.75-3.08-2.32-.45-4.68-.8-6.97-1.35-.31-.07-.65-.14-.66-.22,0,.04,.14,.08,.16,.13-.01-.04-.06-.43-.04-.21-.08-1.09-.15-2.19-.2-3.28-.18-3.99-.16-8.22,1.68-11.87,.61-1.21,.32-2.71-.9-3.42-1.11-.65-2.81-.31-3.42,.9h0Z"/><path class="ah" d="M341.05,1110.02c.29,.56,.55,1.13,.8,1.71l-.25-.6c.7,1.67,1.21,3.4,1.54,5.17,.11,.59,.65,1.2,1.15,1.49,.54,.31,1.33,.45,1.93,.25s1.19-.57,1.49-1.15c.33-.62,.38-1.23,.25-1.93-.48-2.61-1.38-5.12-2.58-7.48-.6-1.17-2.33-1.6-3.42-.9-1.19,.77-1.53,2.17-.9,3.42h0Z"/><path class="ah" d="M340.06,1107.49c.12,1.15,.11,2.3-.05,3.45l.09-.66c-.13,.92-.35,1.82-.65,2.7-.07,.21-.18,.42-.24,.63,.03-.1,.22-.49,.08-.18-.05,.11-.1,.23-.16,.34-.2,.43-.43,.85-.68,1.26-.68,1.12-.29,2.8,.9,3.42s2.7,.3,3.42-.9c1.8-2.98,2.66-6.59,2.29-10.06-.07-.68-.23-1.27-.73-1.77-.43-.43-1.15-.76-1.77-.73-1.23,.06-2.65,1.11-2.5,2.5h0Z"/><path class="ah" d="M332.31,1106.18l-6.17,14.14c-.52,1.2-.39,2.74,.9,3.42,1.08,.57,2.86,.38,3.42-.9l6.17-14.14c.52-1.2,.39-2.74-.9-3.42-1.08-.57-2.86-.38-3.42,.9h0Z"/><path class="ah" d="M333.21,1108.91c-1.56-1.08-3.45-.38-4.81,.63-1.18,.87-2.33,1.77-3.47,2.69-2.05,1.66-4.03,3.41-5.94,5.24-.95,.91-.98,2.64,0,3.54s2.53,.97,3.54,0c1.66-1.59,3.37-3.12,5.13-4.58,.43-.35,.86-.7,1.3-1.05,.22-.17,.44-.34,.65-.52,.19-.15,.17-.13-.01,0,.11-.08,.22-.17,.33-.25,.46-.35,.93-.71,1.4-1.05,.09-.07,.19-.13,.29-.19,.06-.04,.42-.22,.09-.07s.25,.05-.15,.04c-.2,.05-.4,.02-.59-.09-.44-.17-.54-.18-.28-.02,1.08,.75,2.82,.23,3.42-.9,.67-1.28,.25-2.62-.9-3.42h0Z"/><path class="ah" d="M327.19,1104c-3.14-.11-6.19,.73-9.06,1.93s-5.8,2.79-8.33,3.84c-1.25,.52-2.14,1.66-1.75,3.08,.32,1.18,1.82,2.27,3.08,1.75,2.85-1.18,5.58-2.62,8.41-3.87,2.32-1.02,5.09-1.81,7.66-1.72,1.31,.05,2.56-1.18,2.5-2.5-.06-1.39-1.1-2.45-2.5-2.5h0Z"/><path class="ah" d="M322.28,1105.72c-6.29-.28-12.6-.35-18.89-.22-3.21,.07-3.22,5.07,0,5,6.3-.13,12.6-.06,18.89,.22,1.35,.06,2.5-1.19,2.5-2.5,0-1.4-1.15-2.44-2.5-2.5h0Z"/><path class="ah" d="M313.55,1101.56c-5.12-1.51-10.45-2.31-15.79-2.39-1.31-.02-2.56,1.16-2.5,2.5s1.1,2.48,2.5,2.5c5.03,.08,9.56,.77,14.46,2.21,1.25,.37,2.78-.45,3.08-1.75s-.4-2.68-1.75-3.08h0Z"/><path class="ah" d="M298.7,1098.12c-.12-.02-.23-.06-.35-.11l.6,.25c-.15-.07-.29-.15-.42-.25l.51,.39c-.14-.11-.26-.23-.37-.37l.39,.51c-.11-.15-.21-.31-.29-.48l.25,.6c-.07-.17-.12-.35-.15-.54l.09,.66c-.02-.16-.02-.33,0-.49l-.09,.66c.01-.09,.03-.17,.05-.26,.1-.33,.12-.66,.04-1-.02-.33-.11-.64-.3-.93-.16-.29-.37-.53-.64-.7-.24-.22-.52-.37-.85-.45l-.66-.09c-.45,0-.87,.12-1.26,.34-.55,.35-.97,.85-1.15,1.49-.02,.07-.04,.15-.05,.23-.04,.27-.09,.55-.11,.83-.02,.35,.06,.73,.11,1.06,.02,.14,.06,.28,.11,.41,.12,.32,.25,.67,.43,.97,.04,.06,.08,.12,.12,.18,.16,.22,.32,.44,.51,.65,.23,.25,.53,.46,.8,.66,.12,.09,.24,.16,.36,.22,.3,.14,.65,.31,.99,.38,.33,.1,.66,.12,1,.04,.33-.02,.64-.11,.93-.3,.29-.16,.53-.37,.7-.64,.22-.24,.37-.52,.45-.85l.09-.66c0-.45-.12-.87-.34-1.26l-.39-.51c-.31-.31-.68-.52-1.1-.64h0Z"/><path class="ah" d="M302.32,1101.52c-.81,4.05-.38,8.46,1.89,12,2.42,3.77,6.66,6.04,10.74,7.61s8.49,2.23,12.79,1.99c2.06-.11,4.34-.32,6.31-.99,2.69-.92,3.12-3.96,1.7-6.17-1.19-1.85-3.16-3.13-5.02-4.22-2-1.16-4.16-2.1-6.36-2.77-3.99-1.22-9.83-2.43-12.74,1.49-1.59,2.13-1.23,5.02,1.26,6.26,2.13,1.06,4.78,1.28,7.11,.97s5.59-1.08,5.76-3.92c.15-2.57-2.36-3.97-4.57-4.4-2.7-.53-6.12,.49-6.05,3.8,.06,3.02,3.64,4.47,6.22,4.52,3.15,.06,5.25-3.78,2.14-5.68-2.3-1.4-5.16-1.31-7.48-.05-1.24,.67-1.49,2.25-.9,3.42,1.37,2.71,4.99,2.97,7.65,3.1,3.15,.16,6.36-.32,9.35-1.33l-3.08-3.08c-.68,1.86,.67,3.73,2.44,4.26s3.7,.61,5.48,.72c3.26,.2,7.24,.46,9.86-1.82,1.03-.89,.89-2.62,0-3.54-2.98-3.04-7.99-2.4-10.07,1.32l4.57,.6c-.45-2.01-1.36-4.46-3.83-4.41-2,.04-3.56,2.07-4.57,3.57l4.32,2.52,.23-.41c1.59-2.8-2.72-5.32-4.32-2.52l-.23,.41c-1.61,2.82,2.54,5.18,4.32,2.52,.19-.29,.3-.43,.53-.69l.26-.27c.42-.33,.35-.36-.18-.1l-1.77-.73c-.28-.25,.08,.19,.16,.42,.11,.33,.19,.67,.26,1.01,.47,2.11,3.55,2.43,4.57,.6,.53-.95,1.45-1.1,2.22-.31v-3.54c-.35,.3-1.08,.32-1.52,.35-1.04,.07-2.08,.09-3.12,.07s-2.08-.08-3.12-.18c-.42-.04-.83-.09-1.24-.15-.32-.05-.63-.1-.95-.15-.56-.16-.49-.05,.21,.34l.34,1.26-.02,.17c.65-1.76-1.35-3.66-3.08-3.08-2.17,.73-4.37,1.16-6.66,1.18-1.06,.01-2.12-.04-3.17-.2-.46-.07-.93-.26-1.38-.31,.07,.09-.02,.05-.26-.15,.3,.36,.34,.36,.12,0l-.9,3.42c.96-.52,1.88-.33,2.74,.26l-1.24-2.16,.02,.25,.34-1.26c1.09-.44,1.33-.68,.7-.71-.31-.06-.61-.14-.9-.24-.17-.05-.32-.12-.46-.23,.57,1.01,.51,1.64-.18,1.88-.36,.13-.31,.17,.16,.12,.19,.02,.37,.05,.55,.1,.27,.07,.54,.15,.8,.24,.36,.23,.25-.02-.31-.75l.34-1.26c.3-.59,.67-.25,.04-.16-.27,.04-.58,.18-.85,.24-.43,.1-.85,.17-1.29,.21-1.11,.08-2.18-.02-3.25-.33-.11-.03-.64-.21-.64-.21-.28,.06,.32,1.27,.46,1.24,.11-.03,.43-.39,.57-.46,.79-.39,1.83-.26,2.68-.17,4.1,.45,8.64,2.13,11.82,4.81,.29,.24,.52,.54,.8,.8,.6,.56,.31,.36,.19,.33l.37-.7c.57-.65,.56-.86-.03-.61-.42-.04-.99,.22-1.41,.29-.52,.09-1.05,.17-1.58,.22-2.07,.2-4.18,.2-6.25-.06-4.11-.52-8.11-2.03-11.54-4.36s-4.87-6.63-4.05-10.76c.26-1.32-.38-2.7-1.75-3.08-1.23-.34-2.81,.42-3.08,1.75h0Z"/><path class="ah" d="M344.49,1113.63c3.22,0,3.22-5,0-5s-3.22,5,0,5h0Z"/><path class="ah" d="M497.06,1091.24c-.78,4.56-3.39,8.37-6.14,11.99-2.95,3.89-6.21,7.56-9.65,11.02l3.54,3.54c7.07-8.22,13.98-16.57,20.74-25.05l-4.18-2.43c-2.06,6.96-6.4,12.96-11.92,17.61-1.33,1.12-2.73,2.14-4.19,3.07-1.19,.77-2.81,2.02-4.31,1.49-.95-.33-1.79-.92-2.77-1.18-1.11-.3-2.26-.22-3.36,.08-2.21,.6-4.37,1.56-6.52,2.34l1.93,4.57,5.1-3.01c1.56-.92,3.33-1.77,4.52-3.17,1.07-1.26,.93-3.87-1.1-4.18-2.69-.4-4.85,.89-6.95,2.45-1.9,1.4-3.61,2.98-5.1,4.81l3.54,3.54c1.2-1.52,2-3.21,2-5.19s-1.12-3.7-3.11-4.12c-3.17-.65-7.19,2.59-7.91,5.61-.47,1.97,.76,3.96,2.87,4.1,1.74,.12,3.65-.65,4.59-2.17,2.36-3.8-3.03-7.13-6.37-6.11-1.86,.57-2.88,2.46-2.43,4.33,.49,2.05,2.47,2.95,4.28,3.53,3.26,1.04,7.16,1.25,10.44,.17,3.52-1.15,6.24-5.28,3.35-8.57-2.25-2.56-6.74-3.34-9.95-3.42s-8.64,.41-9.55,4.22c-.51,2.14,.75,4.16,2.52,5.28,1.88,1.2,4.04,1.42,6.19,1.06,1.33-.22,2.08-1.87,1.75-3.08-.39-1.42-1.74-1.96-3.08-1.75-.48,.08-1.01,.02-1.47-.14-.27-.09-.61-.34-.87-.42-.23-.07-.02-.13-.17-.05-.07,.04,0,.98-.31,.73,0,0,.38-.22,.41-.23,.65-.3,1.48-.41,2.18-.51,2.62-.37,5.68-.03,8.04,1.24,.18,.1,.4,.19,.54,.34s-.04-.14-.01-.2c-.13,.27-.31,.4-.58,.54-1.14,.59-2.66,.64-3.91,.63-1.43,0-2.82-.23-4.18-.67-.2-.07-.64-.29-.87-.32l-.29-.17c.29,1.38,.04,2.14-.76,2.28,.11,.09,.68,.2,.82,.26l.21,.09c.38,.21,.36,.19-.05-.05l-.34-1.26,.33-.54c.3-.15,.32-.18,.08-.1,.33,.13-1.3-.05-.53,.03l1.26,.34-.29-.16,.9,.9c.62,.94-.28,1.6,.34,.72,.13-.19,.27-.35,.43-.52,.4-.43,.83-.62,1.29-.95,.08-.06,.39-.08,.41-.14-.63-.99-1.02-1.25-1.18-.79-.03,.07-.03,.15-.02,.23-.2,.5-.16,.98-.53,1.45-.83,1.06-1.04,2.5,0,3.54,.88,.88,2.68,1.05,3.54,0,1.09-1.33,2.28-2.57,3.62-3.66,.58-.47,1.2-.9,1.83-1.31,.35-.22,.7-.45,1.06-.64,.16-.08,.88-.33,.68-.36l-1.1-4.18c-1,1.18-2.6,1.85-3.91,2.63l-4.69,2.77c-2.36,1.39-.81,5.56,1.93,4.57l3.51-1.27c.99-.36,2.37-1.17,3.43-1.18,.66,0,1.28,.45,1.86,.71,1.16,.52,2.31,.87,3.59,.8,2.25-.12,4.25-1.3,6.09-2.5,1.7-1.11,3.32-2.34,4.87-3.64,6.16-5.19,10.91-12.07,13.2-19.82,.67-2.26-2.58-4.45-4.18-2.43-6.75,8.48-13.67,16.83-20.74,25.05-2.08,2.41,1.24,5.85,3.54,3.54,3.75-3.77,7.22-7.79,10.44-12.03,2.99-3.94,5.79-8.23,6.64-13.18,.23-1.33-.35-2.69-1.75-3.08-1.2-.33-2.85,.41-3.08,1.75h0Z"/><path class="ah" d="M504.8,1081.02c-1.13-.71-2.64-.67-3.79,0-.8,.48-1.46,1.19-2.09,1.86-1.2,1.28-2.31,2.66-3.31,4.1-.92,1.32-1.73,2.72-2.4,4.18-.41,.89-.78,1.75-.78,2.75,0,1.52,1.05,2.92,2.54,3.29,2.09,.52,4.12-.98,5.44-2.46,1.11-1.24,2.05-2.68,2.71-4.2,.8-1.83,1.22-3.91,.51-5.85-.75-2.06-2.45-3.41-4.48-4.12-2.36-.83-5.09-.18-6.56,1.9s-.8,4.96,1.28,6.33c1.09,.72,2.81,.25,3.42-.9,.66-1.25,.27-2.65-.9-3.42,.47,.31,.26,.23,.15,.1,.38,.44,.21,.28,.13,.13,.26,.51,.15,.33,.09,.17-.14-.38,.02,.13,.03,.2-.03-.45,.01,.17-.05,.2-.04,.01,.1-.29,.08-.3,.07,.04-.24,.49-.02,.15-.2,.25-.24,.31-.11,.17,.13-.13,.07-.09-.18,.11,.03,0,.25-.15,.3-.19,.41-.26-.07,.08-.11,.04,.01,.01,.32-.12,.34-.09,.02,.02-.56,.01-.12,.03,.04,0,.34-.03,.4,0-.26-.16-.33-.07-.07,0,.13,.04,.26,.07,.39,.11,.59,.15-.39-.23,.15,.05,.23,.12,.44,.25,.67,.38,.15,.09,.36,.12-.06-.07,.08,.04,.22,.19,.27,.24,.03,.03,.25,.26,.25,.26-.02,.01-.35-.5-.08-.06,.08,.12,.29,.33-.02-.11,.08,.11,.11,.3,.14,.43l.02,.09c.05,.28,.05,.24,0-.12,.03,.06,.02,.32,.02,.37,0,.12,0,.25,0,.37,0,.18,.08,.39,.03-.12,.03,.23-.12,.58-.19,.8-.04,.13-.09,.26-.13,.39-.15,.45,.11-.19-.02,.07-.25,.48-.49,.97-.77,1.44-.13,.22-.27,.44-.42,.66-.07,.11-.15,.22-.22,.32-.15,.22-.2,.32-.02,.04-.29,.44-.73,.85-1.13,1.2-.06,.05-.39,.3-.12,.11s-.07,.04-.14,.09c-.1,.07-.22,.12-.32,.2-.2,.16,.48-.12,.06-.02s.13-.02,.19-.02l.82,.22,.78,1.02c.14,.46,.03,.45,.04,.21-.03,.62-.06,.34,0,.18,.02-.05,.06-.27,.11-.32-.22,.22-.14,.33-.02,.08,.15-.3,.29-.61,.44-.91,.52-1.02,1.1-2,1.73-2.95,.34-.5,.69-.99,1.06-1.47-.31,.4-.09,.11-.02,.03,.13-.16,.25-.31,.38-.47,.19-.23,.39-.46,.59-.69,.42-.48,.86-.95,1.31-1.4,.09-.1,.19-.19,.28-.28,.09-.09,.56-.44,.07-.11,.17-.11,.34-.11-.11,.01-.3,.08-.73,.05-.99-.12,1.11,.7,2.8,.27,3.42-.9,.65-1.23,.29-2.68-.9-3.42h0Z"/></g></g></svg>