<svg width="16" height="16" viewBox="0 0 16 16" fill="none" xmlns="http://www.w3.org/2000/svg">
<path d="M16 8C16 8.26522 15.8946 8.51957 15.7071 8.70711C15.5196 8.89464 15.2652 9 15 9H9V15C9 15.2652 8.89464 15.5196 8.70711 15.7071C8.51957 15.8946 8.26522 16 8 16C7.73478 16 7.48043 15.8946 7.29289 15.7071C7.10536 15.5196 7 15.2652 7 15V9H1C0.734784 9 0.480429 8.89464 0.292892 8.70711C0.105356 8.51957 0 8.26522 0 8C0 7.73478 0.105356 7.48043 0.292892 7.29289C0.480429 7.10536 0.734784 7 1 7H7V1C7 0.734784 7.10536 0.480429 7.29289 0.292892C7.48043 0.105356 7.73478 0 8 0C8.26522 0 8.51957 0.105356 8.70711 0.292892C8.89464 0.480429 9 0.734784 9 1V7H15C15.2652 7 15.5196 7.10536 15.7071 7.29289C15.8946 7.48043 16 7.73478 16 8Z" fill="white"/>
</svg>
