<svg width="24" height="24" viewBox="0 0 24 24" fill="none" xmlns="http://www.w3.org/2000/svg">
<g clip-path="url(#clip0_3272_158)">
<path fill-rule="evenodd" clip-rule="evenodd" d="M11.367 7.0572C11.7575 6.66668 11.7575 6.03352 11.367 5.64299C10.9765 5.25247 10.3433 5.25247 9.95281 5.64299L4.29595 11.2998C3.90543 11.6904 3.90543 12.3235 4.29595 12.7141L9.9528 18.3709C10.3433 18.7614 10.9765 18.7614 11.367 18.3709C11.7575 17.9804 11.7575 17.3472 11.367 16.9567L7.41044 13.0001H20C20.5523 13.0001 21 12.5524 21 12.0001C21 11.4478 20.5523 11.0001 20 11.0001H7.4241L11.367 7.0572Z" fill="#98959E"/>
</g>
<defs>
<clipPath id="clip0_3272_158">
<rect width="24" height="24" fill="white" transform="matrix(-1 0 0 1 24 0)"/>
</clipPath>
</defs>
</svg>
